<mxfile host="app.diagrams.net" agent="Mozilla/5.0 (X11; Linux x86_64) AppleWebKit/537.36 (KHTML, like Gecko) Chrome/139.0.0.0 Safari/537.36" version="28.1.1">
  <diagram name="Panier" id="8QFGoi12bcBZHGxI1t0X">
    <mxGraphModel dx="1385" dy="846" grid="1" gridSize="10" guides="1" tooltips="1" connect="1" arrows="1" fold="1" page="1" pageScale="1" pageWidth="827" pageHeight="1169" math="0" shadow="0">
      <root>
        <mxCell id="4ey8RuUWY4YUDa7zkjB4-0" />
        <mxCell id="4ey8RuUWY4YUDa7zkjB4-1" parent="4ey8RuUWY4YUDa7zkjB4-0" />
        <mxCell id="4ey8RuUWY4YUDa7zkjB4-2" value="" style="rounded=0;whiteSpace=wrap;html=1;" parent="4ey8RuUWY4YUDa7zkjB4-1" vertex="1">
          <mxGeometry x="110" y="120" width="1080" height="760" as="geometry" />
        </mxCell>
        <mxCell id="4ey8RuUWY4YUDa7zkjB4-3" value="" style="rounded=0;whiteSpace=wrap;html=1;" parent="4ey8RuUWY4YUDa7zkjB4-1" vertex="1">
          <mxGeometry x="110" y="120" width="1080" height="120" as="geometry" />
        </mxCell>
        <mxCell id="4ey8RuUWY4YUDa7zkjB4-6" value="" style="rounded=0;whiteSpace=wrap;html=1;" parent="4ey8RuUWY4YUDa7zkjB4-1" vertex="1">
          <mxGeometry x="110" y="760" width="1080" height="120" as="geometry" />
        </mxCell>
        <mxCell id="4ey8RuUWY4YUDa7zkjB4-12" value="&lt;font style=&quot;font-size: 36px;&quot;&gt;Wireframing Page Cart&lt;/font&gt;" style="whiteSpace=wrap;html=1;" parent="4ey8RuUWY4YUDa7zkjB4-1" vertex="1">
          <mxGeometry x="110" y="10" width="540" height="60" as="geometry" />
        </mxCell>
        <mxCell id="4ey8RuUWY4YUDa7zkjB4-13" value="&lt;font style=&quot;font-size: 36px;&quot;&gt;Mobile&lt;/font&gt;" style="rounded=0;whiteSpace=wrap;html=1;" parent="4ey8RuUWY4YUDa7zkjB4-1" vertex="1">
          <mxGeometry x="600" y="1000" width="460" height="60" as="geometry" />
        </mxCell>
        <mxCell id="4ey8RuUWY4YUDa7zkjB4-14" value="&lt;font style=&quot;font-size: 36px;&quot;&gt;Desktop&lt;/font&gt;" style="rounded=0;whiteSpace=wrap;html=1;" parent="4ey8RuUWY4YUDa7zkjB4-1" vertex="1">
          <mxGeometry x="1280" y="120" width="220" height="60" as="geometry" />
        </mxCell>
        <mxCell id="4ey8RuUWY4YUDa7zkjB4-15" value="" style="rounded=0;whiteSpace=wrap;html=1;" parent="4ey8RuUWY4YUDa7zkjB4-1" vertex="1">
          <mxGeometry x="110" y="1000" width="390" height="845" as="geometry" />
        </mxCell>
        <mxCell id="4ey8RuUWY4YUDa7zkjB4-16" value="" style="rounded=0;whiteSpace=wrap;html=1;" parent="4ey8RuUWY4YUDa7zkjB4-1" vertex="1">
          <mxGeometry x="110" y="1000" width="390" height="100" as="geometry" />
        </mxCell>
        <mxCell id="4ey8RuUWY4YUDa7zkjB4-22" value="" style="rounded=0;whiteSpace=wrap;html=1;" parent="4ey8RuUWY4YUDa7zkjB4-1" vertex="1">
          <mxGeometry x="110" y="1750" width="390" height="100" as="geometry" />
        </mxCell>
        <mxCell id="Br3udmyI0VeaKiF5wCwl-0" value="&lt;div&gt;panier&lt;/div&gt;" style="ellipse;whiteSpace=wrap;html=1;aspect=fixed;" parent="4ey8RuUWY4YUDa7zkjB4-1" vertex="1">
          <mxGeometry x="1040" y="135" width="90" height="90" as="geometry" />
        </mxCell>
        <mxCell id="Br3udmyI0VeaKiF5wCwl-1" value="Titre + logo" style="rounded=0;whiteSpace=wrap;html=1;" parent="4ey8RuUWY4YUDa7zkjB4-1" vertex="1">
          <mxGeometry x="140" y="150" width="210" height="60" as="geometry" />
        </mxCell>
        <mxCell id="Br3udmyI0VeaKiF5wCwl-2" value="Titre + logo" style="rounded=0;whiteSpace=wrap;html=1;" parent="4ey8RuUWY4YUDa7zkjB4-1" vertex="1">
          <mxGeometry x="590" y="780" width="120" height="60" as="geometry" />
        </mxCell>
        <mxCell id="Br3udmyI0VeaKiF5wCwl-3" value="copyright" style="rounded=0;whiteSpace=wrap;html=1;" parent="4ey8RuUWY4YUDa7zkjB4-1" vertex="1">
          <mxGeometry x="590" y="850" width="120" height="30" as="geometry" />
        </mxCell>
        <mxCell id="Br3udmyI0VeaKiF5wCwl-4" value="Titre" style="rounded=0;whiteSpace=wrap;html=1;" parent="4ey8RuUWY4YUDa7zkjB4-1" vertex="1">
          <mxGeometry x="475" y="270" width="350" height="60" as="geometry" />
        </mxCell>
        <mxCell id="Br3udmyI0VeaKiF5wCwl-5" value="" style="rounded=0;whiteSpace=wrap;html=1;" parent="4ey8RuUWY4YUDa7zkjB4-1" vertex="1">
          <mxGeometry x="175" y="360" width="950" height="340" as="geometry" />
        </mxCell>
        <mxCell id="Br3udmyI0VeaKiF5wCwl-7" value="Image" style="rounded=0;whiteSpace=wrap;html=1;" parent="4ey8RuUWY4YUDa7zkjB4-1" vertex="1">
          <mxGeometry x="240" y="390" width="270" height="90" as="geometry" />
        </mxCell>
        <mxCell id="Br3udmyI0VeaKiF5wCwl-8" value="Texte description article" style="rounded=0;whiteSpace=wrap;html=1;" parent="4ey8RuUWY4YUDa7zkjB4-1" vertex="1">
          <mxGeometry x="540" y="390" width="200" height="90" as="geometry" />
        </mxCell>
        <mxCell id="Br3udmyI0VeaKiF5wCwl-9" value="&amp;nbsp;+/-" style="rounded=0;whiteSpace=wrap;html=1;" parent="4ey8RuUWY4YUDa7zkjB4-1" vertex="1">
          <mxGeometry x="925" y="410" width="50" height="50" as="geometry" />
        </mxCell>
        <mxCell id="Br3udmyI0VeaKiF5wCwl-11" value="x" style="rounded=0;whiteSpace=wrap;html=1;" parent="4ey8RuUWY4YUDa7zkjB4-1" vertex="1">
          <mxGeometry x="990" y="410" width="50" height="50" as="geometry" />
        </mxCell>
        <mxCell id="Br3udmyI0VeaKiF5wCwl-12" value="Image" style="rounded=0;whiteSpace=wrap;html=1;" parent="4ey8RuUWY4YUDa7zkjB4-1" vertex="1">
          <mxGeometry x="240" y="500" width="270" height="90" as="geometry" />
        </mxCell>
        <mxCell id="Br3udmyI0VeaKiF5wCwl-13" value="Texte description article" style="rounded=0;whiteSpace=wrap;html=1;" parent="4ey8RuUWY4YUDa7zkjB4-1" vertex="1">
          <mxGeometry x="540" y="500" width="200" height="90" as="geometry" />
        </mxCell>
        <mxCell id="Br3udmyI0VeaKiF5wCwl-14" value="&amp;nbsp;+/-" style="rounded=0;whiteSpace=wrap;html=1;" parent="4ey8RuUWY4YUDa7zkjB4-1" vertex="1">
          <mxGeometry x="925" y="520" width="50" height="50" as="geometry" />
        </mxCell>
        <mxCell id="Br3udmyI0VeaKiF5wCwl-15" value="x" style="rounded=0;whiteSpace=wrap;html=1;" parent="4ey8RuUWY4YUDa7zkjB4-1" vertex="1">
          <mxGeometry x="990" y="520" width="50" height="50" as="geometry" />
        </mxCell>
        <mxCell id="Br3udmyI0VeaKiF5wCwl-16" value="Valider Panier" style="rounded=0;whiteSpace=wrap;html=1;" parent="4ey8RuUWY4YUDa7zkjB4-1" vertex="1">
          <mxGeometry x="660" y="620" width="120" height="60" as="geometry" />
        </mxCell>
        <mxCell id="Br3udmyI0VeaKiF5wCwl-17" value="Total" style="rounded=0;whiteSpace=wrap;html=1;" parent="4ey8RuUWY4YUDa7zkjB4-1" vertex="1">
          <mxGeometry x="920" y="620" width="120" height="60" as="geometry" />
        </mxCell>
        <mxCell id="Br3udmyI0VeaKiF5wCwl-18" value="&amp;nbsp;&lt;div&gt;Retourner à la page&lt;div&gt;d´accueil&lt;/div&gt;&lt;/div&gt;" style="rounded=0;whiteSpace=wrap;html=1;" parent="4ey8RuUWY4YUDa7zkjB4-1" vertex="1">
          <mxGeometry x="890" y="150" width="120" height="60" as="geometry" />
        </mxCell>
        <mxCell id="Br3udmyI0VeaKiF5wCwl-19" value="&lt;font style=&quot;font-size: 16px;&quot;&gt;Titre&lt;/font&gt;" style="rounded=0;whiteSpace=wrap;html=1;" parent="4ey8RuUWY4YUDa7zkjB4-1" vertex="1">
          <mxGeometry x="130" y="1032.5" width="80" height="35" as="geometry" />
        </mxCell>
        <mxCell id="Br3udmyI0VeaKiF5wCwl-20" value="&amp;nbsp;&lt;div&gt;Retourner à la page&lt;div&gt;d´accueil&lt;/div&gt;&lt;/div&gt;" style="rounded=0;whiteSpace=wrap;html=1;" parent="4ey8RuUWY4YUDa7zkjB4-1" vertex="1">
          <mxGeometry x="370" y="1032.5" width="60" height="37.5" as="geometry" />
        </mxCell>
        <mxCell id="Br3udmyI0VeaKiF5wCwl-21" value="&lt;div&gt;panier&lt;/div&gt;" style="ellipse;whiteSpace=wrap;html=1;aspect=fixed;" parent="4ey8RuUWY4YUDa7zkjB4-1" vertex="1">
          <mxGeometry x="440" y="1026.25" width="50" height="50" as="geometry" />
        </mxCell>
        <mxCell id="Br3udmyI0VeaKiF5wCwl-22" value="Barre de recherche" style="rounded=0;whiteSpace=wrap;html=1;" parent="4ey8RuUWY4YUDa7zkjB4-1" vertex="1">
          <mxGeometry x="370" y="150" width="490" height="60" as="geometry" />
        </mxCell>
        <mxCell id="Br3udmyI0VeaKiF5wCwl-23" value="Barre de recherche" style="rounded=0;whiteSpace=wrap;html=1;" parent="4ey8RuUWY4YUDa7zkjB4-1" vertex="1">
          <mxGeometry x="230" y="1030" width="120" height="37.5" as="geometry" />
        </mxCell>
        <mxCell id="Br3udmyI0VeaKiF5wCwl-28" value="Image" style="rounded=0;whiteSpace=wrap;html=1;" parent="4ey8RuUWY4YUDa7zkjB4-1" vertex="1">
          <mxGeometry x="130" y="1210" width="80" height="70" as="geometry" />
        </mxCell>
        <mxCell id="Br3udmyI0VeaKiF5wCwl-29" value="Texte description article" style="rounded=0;whiteSpace=wrap;html=1;" parent="4ey8RuUWY4YUDa7zkjB4-1" vertex="1">
          <mxGeometry x="220" y="1210" width="110" height="70" as="geometry" />
        </mxCell>
        <mxCell id="Br3udmyI0VeaKiF5wCwl-30" value="+/-" style="rounded=0;whiteSpace=wrap;html=1;" parent="4ey8RuUWY4YUDa7zkjB4-1" vertex="1">
          <mxGeometry x="340" y="1210" width="50" height="70" as="geometry" />
        </mxCell>
        <mxCell id="Br3udmyI0VeaKiF5wCwl-31" value="x" style="rounded=0;whiteSpace=wrap;html=1;" parent="4ey8RuUWY4YUDa7zkjB4-1" vertex="1">
          <mxGeometry x="400" y="1210" width="80" height="70" as="geometry" />
        </mxCell>
        <mxCell id="Br3udmyI0VeaKiF5wCwl-32" value="Image" style="rounded=0;whiteSpace=wrap;html=1;" parent="4ey8RuUWY4YUDa7zkjB4-1" vertex="1">
          <mxGeometry x="130" y="1300" width="80" height="70" as="geometry" />
        </mxCell>
        <mxCell id="Br3udmyI0VeaKiF5wCwl-33" value="Texte description article" style="rounded=0;whiteSpace=wrap;html=1;" parent="4ey8RuUWY4YUDa7zkjB4-1" vertex="1">
          <mxGeometry x="220" y="1300" width="110" height="70" as="geometry" />
        </mxCell>
        <mxCell id="Br3udmyI0VeaKiF5wCwl-34" value="+/-" style="rounded=0;whiteSpace=wrap;html=1;" parent="4ey8RuUWY4YUDa7zkjB4-1" vertex="1">
          <mxGeometry x="340" y="1300" width="50" height="70" as="geometry" />
        </mxCell>
        <mxCell id="Br3udmyI0VeaKiF5wCwl-35" value="x" style="rounded=0;whiteSpace=wrap;html=1;" parent="4ey8RuUWY4YUDa7zkjB4-1" vertex="1">
          <mxGeometry x="400" y="1300" width="80" height="70" as="geometry" />
        </mxCell>
        <mxCell id="Br3udmyI0VeaKiF5wCwl-36" value="Image" style="rounded=0;whiteSpace=wrap;html=1;" parent="4ey8RuUWY4YUDa7zkjB4-1" vertex="1">
          <mxGeometry x="130" y="1390" width="80" height="70" as="geometry" />
        </mxCell>
        <mxCell id="Br3udmyI0VeaKiF5wCwl-37" value="Texte description article" style="rounded=0;whiteSpace=wrap;html=1;" parent="4ey8RuUWY4YUDa7zkjB4-1" vertex="1">
          <mxGeometry x="220" y="1390" width="110" height="70" as="geometry" />
        </mxCell>
        <mxCell id="Br3udmyI0VeaKiF5wCwl-38" value="+/-" style="rounded=0;whiteSpace=wrap;html=1;" parent="4ey8RuUWY4YUDa7zkjB4-1" vertex="1">
          <mxGeometry x="340" y="1390" width="50" height="70" as="geometry" />
        </mxCell>
        <mxCell id="Br3udmyI0VeaKiF5wCwl-39" value="x" style="rounded=0;whiteSpace=wrap;html=1;" parent="4ey8RuUWY4YUDa7zkjB4-1" vertex="1">
          <mxGeometry x="400" y="1390" width="80" height="70" as="geometry" />
        </mxCell>
        <mxCell id="Br3udmyI0VeaKiF5wCwl-40" value="Image" style="rounded=0;whiteSpace=wrap;html=1;" parent="4ey8RuUWY4YUDa7zkjB4-1" vertex="1">
          <mxGeometry x="130" y="1480" width="80" height="70" as="geometry" />
        </mxCell>
        <mxCell id="Br3udmyI0VeaKiF5wCwl-41" value="Texte description article" style="rounded=0;whiteSpace=wrap;html=1;" parent="4ey8RuUWY4YUDa7zkjB4-1" vertex="1">
          <mxGeometry x="220" y="1480" width="110" height="70" as="geometry" />
        </mxCell>
        <mxCell id="Br3udmyI0VeaKiF5wCwl-42" value="+/-" style="rounded=0;whiteSpace=wrap;html=1;" parent="4ey8RuUWY4YUDa7zkjB4-1" vertex="1">
          <mxGeometry x="340" y="1480" width="50" height="70" as="geometry" />
        </mxCell>
        <mxCell id="Br3udmyI0VeaKiF5wCwl-43" value="x" style="rounded=0;whiteSpace=wrap;html=1;" parent="4ey8RuUWY4YUDa7zkjB4-1" vertex="1">
          <mxGeometry x="400" y="1480" width="80" height="70" as="geometry" />
        </mxCell>
        <mxCell id="Br3udmyI0VeaKiF5wCwl-44" value="&lt;font style=&quot;font-size: 16px;&quot;&gt;Titre&lt;/font&gt;" style="rounded=0;whiteSpace=wrap;html=1;" parent="4ey8RuUWY4YUDa7zkjB4-1" vertex="1">
          <mxGeometry x="130" y="1130" width="350" height="60" as="geometry" />
        </mxCell>
        <mxCell id="Br3udmyI0VeaKiF5wCwl-45" value="&amp;nbsp;Valider votre panier" style="rounded=0;whiteSpace=wrap;html=1;" parent="4ey8RuUWY4YUDa7zkjB4-1" vertex="1">
          <mxGeometry x="190" y="1650" width="230" height="60" as="geometry" />
        </mxCell>
        <mxCell id="Br3udmyI0VeaKiF5wCwl-46" value="Titre + logo" style="rounded=0;whiteSpace=wrap;html=1;" parent="4ey8RuUWY4YUDa7zkjB4-1" vertex="1">
          <mxGeometry x="245" y="1750" width="120" height="60" as="geometry" />
        </mxCell>
        <mxCell id="Br3udmyI0VeaKiF5wCwl-47" value="copyright" style="rounded=0;whiteSpace=wrap;html=1;" parent="4ey8RuUWY4YUDa7zkjB4-1" vertex="1">
          <mxGeometry x="245" y="1820" width="120" height="30" as="geometry" />
        </mxCell>
        <mxCell id="osXc7avqbdks0j5Jb44A-0" value="Vider votre panier" style="rounded=0;whiteSpace=wrap;html=1;" parent="4ey8RuUWY4YUDa7zkjB4-1" vertex="1">
          <mxGeometry x="240" y="1570" width="120" height="60" as="geometry" />
        </mxCell>
        <mxCell id="osXc7avqbdks0j5Jb44A-1" value="Vider votre panier" style="rounded=0;whiteSpace=wrap;html=1;" parent="4ey8RuUWY4YUDa7zkjB4-1" vertex="1">
          <mxGeometry x="510" y="620" width="120" height="60" as="geometry" />
        </mxCell>
        <mxCell id="BSpWse1Fdl8DSsg-Y0My-1" value="Prix" style="rounded=0;whiteSpace=wrap;html=1;" vertex="1" parent="4ey8RuUWY4YUDa7zkjB4-1">
          <mxGeometry x="790" y="500" width="90" height="90" as="geometry" />
        </mxCell>
        <mxCell id="BSpWse1Fdl8DSsg-Y0My-2" value="Prix" style="rounded=0;whiteSpace=wrap;html=1;" vertex="1" parent="4ey8RuUWY4YUDa7zkjB4-1">
          <mxGeometry x="790" y="390" width="90" height="90" as="geometry" />
        </mxCell>
      </root>
    </mxGraphModel>
  </diagram>
</mxfile>
